<?xml version="1.0" encoding="iso-8859-1"?>
<!-- Generator: Adobe Illustrator 19.0.0, SVG Export Plug-In . SVG Version: 6.00 Build 0)  -->
<svg xmlns="http://www.w3.org/2000/svg" xmlns:xlink="http://www.w3.org/1999/xlink" version="1.1" id="Capa_1" x="0px" y="0px" viewBox="0 0 460 460" style="enable-background:new 0 0 460 460;" xml:space="preserve" width="512" height="512">
<g id="XMLID_1183_">
	<path id="XMLID_1162_" style="fill:#344344;" d="M335,391.617V426c0,2.209-1.811,4-4.045,4h-13.042   c-1.846,0-3.457-1.236-3.917-3.004L230,103.942l-83.996,323.054c-0.46,1.768-2.071,3.004-3.917,3.004h-13.042   c-2.234,0-4.045-1.791-4.045-4v-34.383c0-0.336,0.043-0.671,0.128-0.996L205.11,83.004c0.46-1.768,2.071-3.004,3.917-3.004h19.964   h2.018h19.964c1.846,0,3.457,1.236,3.917,3.004l79.983,307.617C334.957,390.946,335,391.281,335,391.617z"/>
	<path id="XMLID_1160_" style="fill:#636567;" d="M136.754,460L136.754,460c-1.466,0-2.654-1.175-2.654-2.625v-44.751   c0-1.45,1.188-2.625,2.654-2.625h4.525c1.57,0,2.797,1.341,2.641,2.886l-4.525,44.751C139.259,458.978,138.118,460,136.754,460z    M323.246,460L323.246,460c1.466,0,2.654-1.175,2.654-2.625v-44.751c0-1.45-1.188-2.625-2.654-2.625h-4.525   c-1.57,0-2.797,1.341-2.641,2.886l4.525,44.751C320.741,458.978,321.882,460,323.246,460z"/>
	<path id="XMLID_1155_" style="fill:#8C794E;" d="M171.223,330l-25.22,96.996c-0.46,1.768-2.071,3.004-3.917,3.004h-13.042   c-2.234,0-4.045-1.791-4.045-4v-34.383c0-0.336,0.043-0.671,0.127-0.996L140.889,330H171.223z M288.777,330l25.22,96.996   c0.46,1.768,2.071,3.004,3.917,3.004h13.042c2.234,0,4.045-1.791,4.045-4v-34.383c0-0.336-0.043-0.671-0.127-0.996L319.111,330   H288.777z"/>
	<path id="XMLID_1152_" style="fill:#E7CC89;" d="M155.334,335c0,8.284-6.791,15-15.167,15S125,343.284,125,335s6.791-15,15.167-15   S155.334,326.716,155.334,335z M304.666,335c0,8.284,6.791,15,15.167,15c8.377,0,15.167-6.716,15.167-15s-6.791-15-15.167-15   C311.456,320,304.666,326.716,304.666,335z"/>
	<path id="XMLID_1151_" style="fill:#897C53;" d="M145.223,335c0,2.761-2.264,5-5.056,5c-2.792,0-5.056-2.239-5.056-5   s2.264-5,5.056-5C142.959,330,145.223,332.239,145.223,335z M314.777,335c0,2.761,2.264,5,5.056,5s5.056-2.239,5.056-5   s-2.264-5-5.056-5S314.777,332.239,314.777,335z"/>
	<path id="XMLID_1770_" style="fill:#CBB57A;" d="M280.557,90c0,27.614-22.635,50-50.557,50s-50.557-22.386-50.557-50   S202.078,40,230,40S280.557,62.386,280.557,90z"/>
	<path id="XMLID_1769_" style="fill:#9E8E60;" d="M240.111,40h-20.223V5c0-2.761,2.239-5,5-5h10.223c2.761,0,5,2.239,5,5V40z"/>
	<path id="XMLID_1767_" style="fill:#546869;" d="M240.223,150h-20.446c-5.523,0-10-4.477-10-10V40c0-5.523,4.477-10,10-10h20.446   c5.523,0,10,4.477,10,10v100C250.223,145.523,245.746,150,240.223,150z"/>
	<path id="XMLID_919_" style="fill:#9E8E60;" d="M235.056,65c0,2.761-2.264,5-5.056,5s-5.056-2.239-5.056-5c0-2.761,2.264-5,5.056-5   S235.056,62.239,235.056,65z M230,105c-2.792,0-5.056,2.239-5.056,5s2.264,5,5.056,5s5.056-2.239,5.056-5S232.792,105,230,105z"/>
</g>















</svg>
